<?xml version="1.0" encoding="UTF-8" standalone="no"?><!DOCTYPE svg PUBLIC "-//W3C//DTD SVG 1.1//EN" "http://www.w3.org/Graphics/SVG/1.1/DTD/svg11.dtd"><svg width="100%" height="100%" viewBox="0 0 417 417" version="1.1" xmlns="http://www.w3.org/2000/svg" xmlns:xlink="http://www.w3.org/1999/xlink" xml:space="preserve" xmlns:serif="http://www.serif.com/" style="fill-rule:evenodd;clip-rule:evenodd;stroke-linejoin:round;stroke-miterlimit:2;"><path d="M388.66,349.25c0,33.03 -24.23,60.05 -53.84,60.05l-252.53,0c-29.61,0 -53.84,-27.02 -53.84,-60.05c0,-20.22 9.09,-38.2 22.93,-49.09l134.37,-120c2.5,-2.14 5.74,1.31 3.94,4.19l-49.29,98.69c-1.38,2.76 0.41,6.16 3.25,6.16l191.18,0c29.61,0 53.83,27.03 53.83,60.05Zm0,-281.39c0,20.22 -9.09,38.2 -22.93,49.09l-134.37,120c-2.5,2.14 -5.74,-1.31 -3.94,-4.19l49.29,-98.69c1.38,-2.76 -0.41,-6.16 -3.25,-6.16l-191.17,0c-29.61,0 -53.84,-27.02 -53.84,-60.05c0,-33.03 24.23,-60.05 53.84,-60.05l252.54,0c29.61,0 53.83,27.02 53.83,60.05Z" style="fill:#fff;fill-rule:nonzero;"/></svg>