<?xml version="1.0" standalone="no"?>
<!DOCTYPE svg PUBLIC "-//W3C//DTD SVG 20010904//EN"
 "http://www.w3.org/TR/2001/REC-SVG-20010904/DTD/svg10.dtd">
<svg version="1.0" xmlns="http://www.w3.org/2000/svg"
 width="736.000000pt" height="736.000000pt" viewBox="0 0 736.000000 736.000000"
 preserveAspectRatio="xMidYMid meet">
<metadata>
Created by potrace 1.14, written by Peter Selinger 2001-2017
</metadata>
<g transform="translate(0.000000,736.000000) scale(0.100000,-0.100000)"
fill="#000000" stroke="none">
<path d="M3125 7282 c-1 -1 -36 -5 -76 -8 -41 -2 -87 -6 -104 -8 -110 -14
-166 -23 -195 -31 -8 -2 -31 -7 -50 -10 -19 -3 -55 -12 -80 -19 -25 -7 -48
-14 -53 -15 -20 -3 -64 -13 -77 -19 -8 -3 -19 -6 -25 -7 -65 -8 -448 -153
-621 -236 -33 -16 -66 -29 -72 -29 -7 0 -12 -4 -12 -10 0 -5 -9 -10 -20 -10
-11 0 -20 -4 -20 -10 0 -5 -7 -10 -15 -10 -18 0 -272 -130 -306 -156 -70 -55
-224 -219 -273 -292 -102 -151 -195 -385 -200 -502 -1 -14 -4 -27 -8 -30 -28
-21 -25 -455 3 -562 5 -20 8 -40 7 -45 -3 -10 17 -95 44 -187 11 -38 21 -78
23 -88 3 -11 9 -26 16 -34 6 -8 9 -14 6 -14 -20 0 157 -365 193 -400 3 -3 11
-16 18 -30 19 -39 36 -64 50 -73 6 -4 12 -13 12 -20 0 -7 11 -24 25 -39 14
-15 25 -30 25 -33 0 -7 70 -97 84 -106 9 -7 -28 -49 -43 -49 -5 0 -11 -3 -13
-8 -2 -4 -23 -23 -48 -42 -25 -19 -47 -37 -50 -40 -3 -3 -32 -27 -65 -55 -155
-128 -331 -308 -475 -485 -25 -30 -53 -64 -62 -74 -10 -11 -20 -27 -23 -37 -3
-9 -12 -20 -20 -23 -8 -3 -15 -12 -15 -20 0 -8 -4 -16 -9 -18 -5 -1 -39 -49
-75 -105 -101 -154 -187 -326 -246 -493 -9 -23 -48 -164 -49 -175 -1 -3 -1 -6
-2 -7 0 -2 -2 -12 -4 -23 -27 -168 -24 -394 7 -510 5 -22 12 -51 14 -65 3 -14
7 -32 11 -40 3 -8 7 -18 8 -22 2 -5 4 -10 5 -13 1 -3 3 -9 4 -14 0 -5 4 -13 8
-17 5 -4 8 -14 8 -21 0 -13 116 -257 132 -278 5 -5 27 -39 50 -75 23 -36 46
-66 50 -68 4 -2 8 -8 8 -14 0 -5 44 -64 97 -131 105 -130 307 -339 413 -428
36 -30 67 -56 70 -59 3 -3 34 -28 70 -55 64 -50 76 -59 104 -82 8 -7 18 -13
22 -13 3 0 23 -13 44 -30 21 -16 42 -30 47 -30 6 0 18 -9 28 -20 10 -11 22
-20 26 -20 5 0 32 -15 61 -33 100 -64 175 -103 348 -184 165 -76 247 -108 395
-154 55 -16 106 -32 113 -34 7 -3 14 -5 17 -5 3 -1 19 -6 37 -11 77 -24 271
-67 333 -75 22 -3 46 -7 54 -10 20 -6 109 -18 149 -18 17 -1 32 -4 32 -7 0 -3
6 -6 13 -6 6 0 48 -4 92 -7 163 -15 194 -16 385 -17 205 0 281 4 301 17 8 5 9
3 4 -6 -5 -7 -4 -11 1 -8 5 3 36 9 69 12 33 4 71 9 85 11 24 4 99 16 130 20
33 4 138 28 189 42 29 8 61 17 70 18 9 2 16 4 16 5 0 2 13 5 51 13 11 3 37 12
57 21 21 8 40 15 42 15 3 1 21 8 41 16 20 8 39 15 43 15 3 0 23 9 44 20 20 11
39 20 42 19 5 0 103 49 165 83 242 132 426 317 532 538 63 129 127 326 143
440 2 14 6 45 10 70 3 25 8 51 11 58 10 33 19 181 19 347 0 216 -10 332 -41
499 -9 47 -47 197 -66 256 -22 72 -95 246 -112 270 -12 16 -32 51 -52 88 -6
13 -23 35 -36 50 -13 15 -48 59 -78 97 -44 58 -254 273 -302 310 -45 35 -116
93 -132 108 -11 9 -23 17 -27 17 -4 0 -14 7 -22 15 -8 8 -68 53 -133 101 -66
47 -120 90 -122 95 -2 5 -10 9 -18 9 -8 0 -14 5 -14 10 0 6 -7 10 -15 10 -8 0
-15 4 -15 8 0 4 -18 19 -40 32 -22 14 -40 28 -40 31 0 3 -21 21 -47 40 -27 18
-52 37 -58 42 -5 4 -54 39 -108 78 -95 69 -104 79 -72 86 34 7 40 9 50 14 8 5
25 10 75 24 3 0 32 9 65 20 33 10 65 19 70 21 6 1 82 20 170 42 88 22 176 43
196 46 20 3 42 8 50 10 8 3 32 8 54 12 22 3 51 8 65 11 14 2 36 5 50 7 14 1
41 6 60 10 19 3 58 9 85 12 28 2 82 8 120 12 93 9 506 9 575 -1 30 -4 71 -10
90 -12 19 -3 60 -10 90 -16 30 -6 64 -12 75 -14 11 -2 30 -6 43 -9 12 -3 30
-8 40 -10 55 -13 220 -75 297 -112 78 -37 210 -115 225 -133 3 -3 26 -23 51
-43 26 -21 69 -60 97 -89 l50 -51 -23 -51 c-39 -89 -85 -168 -162 -282 -42
-60 -79 -112 -82 -115 -6 -4 -67 -79 -165 -201 -23 -29 -94 -135 -117 -175
-150 -267 -194 -473 -144 -679 4 -16 12 -36 18 -42 5 -7 6 -13 3 -13 -4 0 2
-13 13 -29 12 -16 21 -33 21 -39 0 -13 98 -104 140 -129 49 -29 137 -52 191
-48 48 3 141 42 180 76 13 11 29 24 34 27 30 20 113 133 161 219 92 168 164
377 208 613 3 14 7 34 9 45 3 11 8 45 12 75 4 30 9 64 11 74 5 28 18 147 30
291 14 158 7 613 -11 740 -2 17 -7 53 -11 80 -3 28 -8 59 -10 70 -3 11 -7 36
-10 55 -6 34 -31 155 -38 175 -1 6 -8 30 -15 55 -7 25 -15 52 -18 60 -3 8 -7
20 -9 25 -12 48 -73 186 -98 223 -18 26 -48 69 -66 97 -33 47 -120 139 -171
180 -30 24 -202 126 -249 147 -113 51 -143 64 -220 90 -47 16 -92 31 -100 33
-8 2 -51 12 -95 23 -44 11 -96 23 -115 26 -19 3 -46 8 -60 11 -50 10 -106 17
-255 32 -38 4 -178 8 -310 8 -212 0 -318 -5 -460 -20 -22 -3 -61 -7 -87 -10
-26 -2 -75 -9 -110 -14 -35 -6 -83 -13 -108 -16 -38 -6 -192 -34 -280 -51 -73
-15 -209 -46 -235 -54 -16 -5 -43 -12 -60 -15 -34 -7 -33 -7 -95 -25 -25 -7
-49 -14 -55 -16 -5 -1 -30 -8 -55 -15 -25 -7 -47 -13 -50 -14 -21 -5 -128 -37
-140 -42 -8 -3 -17 -7 -20 -8 -36 -9 -312 -105 -335 -116 -12 -6 -27 -11 -35
-13 -8 -2 -26 -8 -40 -13 -14 -6 -87 -36 -162 -66 l-138 -55 -34 42 c-19 22
-56 64 -81 91 -213 228 -383 561 -440 860 -19 100 -24 269 -10 360 12 78 12
79 18 95 3 8 13 42 23 75 23 77 73 174 132 252 56 74 48 74 227 17 71 -22 215
-84 246 -105 14 -10 28 -16 31 -13 3 2 11 -2 18 -11 7 -8 17 -15 22 -15 11 0
170 -106 228 -154 25 -20 50 -40 55 -44 6 -4 44 -34 85 -67 41 -33 134 -104
205 -157 72 -54 135 -101 140 -105 40 -31 194 -128 260 -164 154 -85 275 -131
440 -165 129 -27 399 -18 515 18 117 35 211 116 244 209 68 187 -33 437 -270
673 -49 49 -121 110 -234 199 -8 7 -28 18 -42 26 -15 8 -36 21 -46 30 -19 17
-22 19 -117 71 -143 78 -204 105 -335 151 -130 45 -312 89 -435 104 -27 3 -62
8 -76 10 -14 3 -68 7 -119 9 -51 3 -94 7 -97 10 -3 3 -15 1 -28 -4 -13 -5 -26
-6 -29 -3 -6 6 -115 11 -121 5z m-530 -4126 c103 -75 118 -87 161 -121 18 -14
36 -25 42 -25 6 0 12 -3 14 -7 5 -12 75 -63 86 -63 6 0 12 -4 14 -8 8 -18 404
-275 583 -377 28 -16 52 -32 55 -35 4 -4 111 -71 215 -133 11 -7 22 -14 25
-18 12 -12 102 -69 111 -69 5 0 9 -5 9 -10 0 -6 8 -14 17 -17 17 -7 198 -143
254 -191 13 -11 35 -30 49 -42 162 -139 368 -388 404 -490 16 -43 -412 -247
-759 -362 -49 -17 -94 -31 -100 -32 -5 -1 -37 -10 -70 -20 -33 -10 -67 -20
-75 -21 -8 -2 -30 -8 -47 -14 -18 -5 -33 -7 -33 -5 0 3 -6 2 -12 -3 -7 -4 -17
-8 -23 -9 -5 -1 -41 -10 -80 -19 -38 -9 -81 -19 -95 -22 -14 -2 -45 -9 -70
-14 -66 -15 -66 -15 -201 -38 -123 -20 -172 -27 -259 -36 -25 -3 -63 -7 -85
-10 -172 -19 -588 -25 -711 -11 -33 4 -85 9 -117 12 -33 2 -71 6 -85 9 -15 3
-46 8 -70 10 -23 2 -46 6 -50 9 -4 2 -27 7 -51 11 -24 3 -53 10 -66 15 -13 5
-25 7 -27 5 -17 -17 -148 157 -192 255 -59 133 -79 220 -79 350 -1 182 66 419
160 573 13 20 21 37 18 37 -6 0 167 258 192 285 10 12 38 45 63 75 117 144
322 345 495 485 39 31 79 64 90 73 32 26 86 67 129 96 39 26 39 26 60 7 12
-11 62 -49 111 -85z"/>
</g>
</svg>
