<?xml version="1.0" standalone="no"?>
<!DOCTYPE svg PUBLIC "-//W3C//DTD SVG 20010904//EN"
 "http://www.w3.org/TR/2001/REC-SVG-20010904/DTD/svg10.dtd">
<svg version="1.0" xmlns="http://www.w3.org/2000/svg"
 width="700.000000pt" height="700.000000pt" viewBox="0 0 700.000000 700.000000"
 preserveAspectRatio="xMidYMid meet">
<metadata>
Created by potrace 1.14, written by Peter Selinger 2001-2017
</metadata>
<g transform="translate(0.000000,700.000000) scale(0.100000,-0.100000)"
fill="#000000" stroke="none">
<path d="M2788 6855 c-2 -1 -39 -5 -83 -8 -44 -4 -93 -9 -110 -12 -16 -3 -43
-8 -60 -11 -16 -3 -75 -19 -131 -35 -475 -136 -900 -514 -1154 -1029 -183
-368 -249 -719 -195 -1020 3 -14 7 -43 11 -65 11 -70 63 -217 114 -320 121
-247 304 -449 605 -666 176 -127 386 -245 899 -506 l29 -15 -79 -40 c-233
-118 -493 -271 -689 -405 -219 -151 -369 -281 -545 -472 -62 -68 -171 -240
-209 -331 -59 -139 -76 -232 -75 -405 1 -121 22 -237 61 -325 96 -220 204
-387 353 -544 255 -269 627 -450 1065 -516 44 -7 87 -14 96 -15 130 -25 536
-26 577 -1 4 2 28 7 54 10 69 9 235 61 330 102 247 108 493 296 675 514 196
236 365 570 429 850 1 8 11 49 20 90 24 101 24 349 1 477 -33 180 -122 401
-224 555 -141 213 -313 378 -628 604 l-30 21 150 47 c83 27 168 54 191 61 51
17 394 110 454 123 196 43 280 61 310 66 19 3 46 8 60 11 76 15 91 17 205 31
166 20 218 22 385 19 261 -4 330 -28 387 -130 24 -43 28 -61 28 -130 0 -117
-36 -223 -124 -360 -53 -84 -61 -136 -35 -225 42 -141 218 -217 348 -149 57
29 81 54 131 134 248 398 223 832 -63 1097 -49 44 -181 127 -209 130 -9 1 -8
1 -68 16 -110 29 -413 33 -567 7 -13 -2 -57 -8 -98 -14 -115 -16 -147 -21
-250 -43 -52 -10 -106 -22 -120 -24 -14 -3 -52 -12 -85 -21 -33 -8 -67 -16
-75 -18 -144 -30 -561 -153 -813 -241 -73 -25 -139 -47 -147 -49 -17 -4 -144
-51 -175 -64 -56 -25 -157 -61 -170 -61 -8 0 -43 15 -77 34 -94 50 -367 190
-598 307 -295 148 -630 343 -692 402 -7 7 -31 25 -53 42 -66 49 -198 186 -238
248 -128 194 -153 391 -80 632 71 236 247 504 441 671 207 178 394 243 682
238 85 -1 169 -5 185 -7 17 -3 59 -9 95 -12 79 -9 72 -7 203 -39 318 -77 549
-235 727 -501 45 -66 100 -119 152 -146 203 -104 451 9 502 228 29 128 5 203
-126 388 -251 355 -576 586 -1006 714 -109 32 -274 67 -368 77 -32 3 -66 8
-77 10 -50 9 -421 26 -429 19z m381 -3917 c106 -57 193 -104 231 -128 8 -5 49
-29 91 -54 167 -98 350 -254 445 -378 80 -103 144 -252 162 -373 9 -63 8 -217
-2 -270 -16 -82 -78 -252 -125 -341 -186 -353 -451 -588 -766 -678 -120 -35
-169 -40 -430 -40 l-240 -1 -165 38 c-214 50 -276 70 -369 117 -235 118 -482
388 -551 603 -119 368 164 762 842 1173 49 30 91 54 94 54 2 0 23 12 47 27 47
30 597 312 611 313 4 0 61 -28 125 -62z"/>
</g>
</svg>
