<?xml version="1.0" encoding="UTF-8" standalone="no"?><!DOCTYPE svg PUBLIC "-//W3C//DTD SVG 1.1//EN" "http://www.w3.org/Graphics/SVG/1.1/DTD/svg11.dtd"><svg width="100%" height="100%" viewBox="0 0 448 448" version="1.1" xmlns="http://www.w3.org/2000/svg" xmlns:xlink="http://www.w3.org/1999/xlink" xml:space="preserve" xmlns:serif="http://www.serif.com/" style="fill-rule:evenodd;clip-rule:evenodd;stroke-linejoin:round;stroke-miterlimit:2;"><path d="M225.9,0c-122.6,0 -225.9,98.5 -225.9,220.1c0,3.9 0.1,227.9 0.1,227.9l225.8,-0.2c122.7,0 222.1,-102.3 222.1,-223.9c0,-121.6 -99.4,-223.9 -222.1,-223.9Z" style="fill:#fff;fill-rule:nonzero;"/><path d="M225.9,0c-122.6,0 -225.9,98.5 -225.9,220.1c0,3.9 0.1,227.9 0.1,227.9l225.8,-0.2c122.7,0 222.1,-102.3 222.1,-223.9c0,-121.6 -99.4,-223.9 -222.1,-223.9Zm0,28c107.294,0 194.1,89.568 194.1,195.9c0,106.332 -86.806,195.9 -194.1,195.9c-0.008,0 -0.017,0 -0.025,0l-197.787,0.175c-0.027,-60.22 -0.088,-196.837 -0.088,-199.875c0,-106.335 90.691,-192.1 197.9,-192.1Z"/><path d="M224,352c-19.4,0 -37.9,-4.3 -54.4,-12.1l-81.1,20.1l22.9,-75c-9.8,-18.1 -15.4,-38.9 -15.4,-61c0,-70.7 57.3,-128 128,-128c70.7,0 128,57.3 128,128c0,70.7 -57.3,128 -128,128Z" style="fill-rule:nonzero;"/></svg>