<?xml version="1.0" encoding="UTF-8" standalone="no"?>
<!DOCTYPE svg PUBLIC "-//W3C//DTD SVG 1.1//EN" "http://www.w3.org/Graphics/SVG/1.1/DTD/svg11.dtd">
<svg width="100%" height="100%" viewBox="0 0 86 90" version="1.1" xmlns="http://www.w3.org/2000/svg" xmlns:xlink="http://www.w3.org/1999/xlink" xml:space="preserve" xmlns:serif="http://www.serif.com/" style="fill-rule:evenodd;clip-rule:evenodd;stroke-linejoin:round;stroke-miterlimit:2;">
    <g transform="matrix(1,0,0,1,-182.234,-127.891)">
        <g>
            <path id="path2219" d="M215.085,216.988C192.784,213.59 184.488,197.188 184.488,197.188C195.284,214.09 227.488,206.289 237.386,199.688C249.784,191.391 245.386,184.391 244.187,181.59C249.585,188.789 249.488,205.09 243.085,210.988C237.488,216.09 227.784,218.891 215.085,216.988Z" style="fill:rgb(43,54,189);fill-rule:nonzero;"/>
            <path id="path2221" d="M263.988,170.891C266.886,163.789 264.784,158.391 264.488,157.59C263.784,156.289 262.988,155.289 262.085,154.488C245.988,141.891 206.187,155.488 191.187,171.289C180.284,182.789 181.085,191.289 184.488,197.09C187.585,201.891 192.386,204.688 197.886,206.09C186.386,193.688 207.687,174.988 226.886,168.09C247.886,160.59 259.386,165.09 263.988,170.891Z" style="fill:rgb(217,181,0);fill-rule:nonzero;"/>
            <path id="path2223" d="M259.687,177.789C268.687,167.289 264.687,158.09 264.488,157.391C264.488,157.391 268.886,164.488 266.687,179.988C265.488,188.488 261.284,195.988 256.585,191.789C254.488,189.988 253.585,184.891 259.687,177.789Z" style="fill:rgb(43,54,189);fill-rule:nonzero;"/>
            <path id="path2225" d="M244.085,181.59C240.784,176.789 235.988,174.188 231.784,170.789C229.585,169.09 215.386,159.59 212.585,155.688C206.187,149.289 203.085,138.789 209.187,132.59C204.784,131.789 200.988,132.789 198.585,134.09C197.488,134.688 196.488,135.289 195.784,136.09C189.085,142.289 189.988,153.09 194.187,160.391C198.687,168.188 207.386,175.789 218.488,183.188C223.585,186.59 234.085,191.59 237.784,199.188C249.488,191.09 245.386,184.289 244.085,181.59Z" style="fill:rgb(89,201,255);fill-rule:nonzero;"/>
            <path id="path2227" d="M218.784,137.188C226.687,143.488 231.187,146.988 238.784,145.688C244.488,144.688 243.687,137.789 234.784,132.09C230.386,129.289 225.386,127.891 219.085,127.891C211.585,127.891 202.784,131.789 198.488,134.289C202.488,131.988 210.386,130.488 218.784,137.188Z" style="fill:rgb(43,54,189);fill-rule:nonzero;"/>
        </g>
    </g>
</svg>

