<?xml version="1.0" encoding="UTF-8" standalone="no"?><!DOCTYPE svg PUBLIC "-//W3C//DTD SVG 1.1//EN" "http://www.w3.org/Graphics/SVG/1.1/DTD/svg11.dtd">
<svg width="100%" height="100%" viewBox="0 0 91 91" version="1.1"
    xmlns="http://www.w3.org/2000/svg"
    xmlns:xlink="http://www.w3.org/1999/xlink" xml:space="preserve"
    xmlns:serif="http://www.serif.com/" style="fill-rule:evenodd;clip-rule:evenodd;stroke-linejoin:round;stroke-miterlimit:2;">
    <g id="Ebene_3">
        <g>
            <path d="M35,89.6c-22.3,-3.4 -30.6,-19.8 -30.6,-19.8c10.8,16.9 43,9.1 52.9,2.5c12.4,-8.3 8,-15.3 6.8,-18.1c5.4,7.2 5.3,23.5 -1.1,29.4c-5.6,5.1 -15.3,7.9 -28,6Z" style="fill:#61DBE8;fill-rule:nonzero;stroke:#000;stroke-width:1px;"/>
            <path d="M83.9,43.5c2.9,-7.1 0.8,-12.5 0.5,-13.3c-0.7,-1.3 -1.5,-2.3 -2.4,-3.1c-16.1,-12.6 -55.9,1 -70.9,16.8c-10.9,11.5 -10.1,20 -6.7,25.8c3.1,4.8 7.9,7.6 13.4,9c-11.5,-12.4 9.8,-31.1 29,-38c21,-7.5 32.5,-3 37.1,2.8Z" style="fill:#27565C;fill-rule:nonzero;stroke:#000;stroke-width:1px;"/>
            <path d="M79.6,50.4c9,-10.5 5,-19.7 4.8,-20.4c-0,0 4.4,7.1 2.2,22.6c-1.2,8.5 -5.4,16 -10.1,11.8c-2.1,-1.8 -3,-6.9 3.1,-14Z" style="fill:#61DBE8;fill-rule:nonzero;stroke:#000;stroke-width:1px;"/>
            <path d="M64,54.2c-3.3,-4.8 -8.1,-7.4 -12.3,-10.8c-2.2,-1.7 -16.4,-11.2 -19.2,-15.1c-6.4,-6.4 -9.5,-16.9 -3.4,-23.1c-4.4,-0.8 -8.2,0.2 -10.6,1.5c-1.1,0.6 -2.1,1.2 -2.8,2c-6.7,6.2 -5.8,17 -1.6,24.3c4.5,7.8 13.2,15.4 24.3,22.8c5.1,3.4 15.6,8.4 19.3,16c11.7,-8.1 7.6,-14.9 6.3,-17.6Z" style="fill:#479FA8;fill-rule:nonzero;stroke:#000;stroke-width:1px;"/>
            <path d="M38.7,9.8c7.9,6.3 12.4,9.8 20,8.5c5.7,-1 4.9,-7.9 -4,-13.6c-4.4,-2.8 -9.4,-4.2 -15.7,-4.2c-7.5,-0 -16.3,3.9 -20.6,6.4c4,-2.3 11.9,-3.8 20.3,2.9Z" style="fill:#61DBE8;fill-rule:nonzero;stroke:#000;stroke-width:1px;"/>
        </g>
    </g>
</svg>
