<?xml version="1.0" encoding="utf-8"?>
<!-- Generator: Adobe Illustrator 24.1.0, SVG Export Plug-In . SVG Version: 6.00 Build 0)  -->
<svg version="1.1" id="Layer_1" xmlns="http://www.w3.org/2000/svg" xmlns:xlink="http://www.w3.org/1999/xlink" x="0px" y="0px"
	 viewBox="0 0 83.2 202.3" style="enable-background:new 0 0 83.2 202.3;" xml:space="preserve">
<style type="text/css">
	.st0{opacity:0.77;fill:#E6E7E8;stroke:#000000;stroke-miterlimit:10;}
	.st1{fill:#FFFFFF;stroke:#000000;stroke-width:1.3;stroke-miterlimit:10;}
	.st2{fill:#A7A9AC;stroke:#000000;stroke-width:1.3;stroke-miterlimit:10;}
	.st3{fill:none;stroke:#000000;stroke-width:2;stroke-miterlimit:10;}
	.st4{font-family:'Times-Italic';}
	.st5{font-size:22px;}
</style>
<path class="st0" d="M82.7,134.1c0.5,7-4.5,8-6.5,17.1c-3.2,14.6,7.7,21.8,3.5,29.4c-3.9,7.1-13.8,1.7-31.9,10
	c-13.1,6-15.3,12.2-22.9,11.1c-7.8-1.2-13-8.9-17.6-15.7c-3.3-5-7.5-11.2-6.7-18.7c0.5-5,2.8-7.1,6.4-13
	c11.1-18.1,6.4-25.8,13.9-30.3c8-4.7,14,3.7,27.2-1c8.7-3.1,9.4-7.9,15.6-7.9C72.5,115.1,82.1,124.8,82.7,134.1z"/>
<g>
	<circle class="st1" cx="41.6" cy="20.6" r="20"/>
	<circle class="st2" cx="41.6" cy="156" r="20"/>
</g>
<g>
	<g>
		<line class="st3" x1="41.6" y1="40.6" x2="41.6" y2="116"/>
		<g>
			<polygon points="36.5,112.1 41.6,114.3 46.8,112.1 41.6,124.3 			"/>
		</g>
	</g>
</g>
<text transform="matrix(1 0 0 1 37.4016 25.549)" class="st4 st5">z</text>
<text transform="matrix(1 0 0 1 37.0304 160.8202)" class="st4 st5">x</text>
</svg>
